<svg width="95" height="95" viewBox="0 0 95 95" fill="none" xmlns="http://www.w3.org/2000/svg">
<g clip-path="url(#clip0)">
<path d="M94.1127 77.0194C93.3821 75.5891 92.4277 74.2848 91.2855 73.1555C89.9727 71.8267 88.4509 70.722 86.7807 69.8854C82.6718 67.8309 77.2246 67.2183 70.9199 70.3094C66.1102 72.5406 60.958 73.9427 55.681 74.4561C75.3223 65.3563 83.8679 42.0572 74.7682 22.4159C65.6685 2.7745 42.3694 -5.77109 22.728 3.32864C3.08664 12.4284 -5.45895 35.7275 3.64078 55.3688C9.98489 69.0622 23.6271 77.8968 38.7175 78.0844L38.7458 78.075C46.3416 82.2122 56.7365 81.2226 65.3219 80.3933C68.2186 80.0512 71.1319 79.8688 74.0487 79.8467C80.4571 80.0069 80.1084 86.7923 80.0519 87.5557C79.9157 88.5457 80.6077 89.4586 81.5977 89.595C81.9989 89.6502 82.407 89.5694 82.7566 89.3651L93.9242 82.9001C94.2284 82.7232 94.4741 82.4612 94.631 82.1462C95.2719 80.8645 95.0645 78.9702 94.1127 77.0194ZM14.1864 64.0424C7.50492 57.3835 3.74491 48.3413 3.73502 38.9081C3.71005 29.4894 7.43706 20.4483 14.0922 13.7833H14.1016C27.9568 -0.118714 50.4586 -0.156646 64.3606 13.6985C78.2627 27.5537 78.3006 50.0555 64.4455 63.9576C50.5901 77.8596 28.0885 77.8975 14.1864 64.0424ZM83.5482 84.7284C83.0487 81.3169 81.1262 76.4069 74.1241 76.2467C71.0657 76.2636 68.0106 76.4523 64.9732 76.8121L62.0517 77.0854C65.68 76.343 69.203 75.156 72.5408 73.5514H72.5314C77.6393 71.0445 81.9555 71.4969 85.188 73.1084C86.5025 73.7698 87.6993 74.642 88.7315 75.6906C89.5974 76.5414 90.3225 77.5243 90.8802 78.6027C91.1439 79.0904 91.3345 79.6144 91.4457 80.1577L83.5482 84.7284Z" fill="url(#paint0_linear)"/>
<path d="M65.7514 23.5939C65.7495 23.5908 65.7478 23.5878 65.746 23.5845C62.9387 19.3257 57.2107 18.1491 52.952 20.9561C49.0831 23.5063 47.7029 28.5284 49.7249 32.6976L49.7532 32.8296C52.3088 37.237 57.951 38.7425 62.3627 36.194C66.7779 33.6504 68.295 28.0091 65.7514 23.5939ZM60.5438 33.0558C57.8551 34.5841 54.4377 33.6688 52.8726 31.0013L52.8254 30.9165C52.1358 29.6487 51.9572 28.1651 52.326 26.7698C53.1753 23.7647 56.2999 22.017 59.305 22.8661C60.6854 23.2563 61.866 24.1565 62.6077 25.3845C64.1342 28.0756 63.2146 31.4939 60.5438 33.0558Z" fill="url(#paint1_linear)"/>
<path d="M44.4192 33.706C43.0409 32.3237 41.169 31.5469 39.217 31.5479C35.1522 31.5453 31.8546 34.8385 31.8521 38.9034C31.8495 42.9683 35.1427 46.2658 39.2076 46.2684C43.2725 46.271 46.57 42.9777 46.5726 38.9128C46.5738 36.9604 45.7991 35.0873 44.4192 33.706ZM41.8746 41.5469C40.4085 43.0251 38.0218 43.0347 36.5436 41.5688C35.0655 40.1026 35.0558 37.716 36.5217 36.2378C37.9879 34.7596 40.3746 34.7499 41.8527 36.2161C42.5701 36.9279 42.9721 37.8979 42.9676 38.9084C42.9688 39.8981 42.5753 40.8476 41.8746 41.5469Z" fill="url(#paint2_linear)"/>
<path d="M28.7657 45.0903L28.6809 44.9867C26.1316 40.5724 20.488 39.0579 16.0713 41.6034C11.6448 44.138 10.1113 49.781 12.6459 54.2075C12.6506 54.2155 12.6553 54.2237 12.6598 54.2318C13.8948 56.3621 15.9311 57.9095 18.3143 58.5292C20.6388 59.1538 23.1152 58.8425 25.2128 57.6621L25.3259 57.5962C29.7034 55.0729 31.2369 49.4975 28.7657 45.0903ZM23.507 54.4297L23.4222 54.4768C20.7544 55.9114 17.4298 54.9887 15.8828 52.3846C15.1259 51.1112 14.9056 49.5892 15.2703 48.1532L15.2797 48.1626C15.6637 46.7219 16.6069 45.4939 17.8996 44.751C20.5883 43.2229 24.006 44.138 25.5709 46.8055L25.618 46.8903C27.0493 49.563 26.118 52.889 23.507 54.4297Z" fill="url(#paint3_linear)"/>
<path d="M62.4569 41.7354L62.4852 41.6788L62.391 41.6223C57.9753 39.0693 52.3257 40.5793 49.7727 44.995C49.7725 44.9954 49.7722 44.9957 49.772 44.9961C47.1695 49.3864 48.619 55.055 53.0092 57.6575C57.3995 60.26 63.0681 58.8105 65.6706 54.4203V54.3638L65.7177 54.2789C68.2448 49.9099 66.792 44.3209 62.4569 41.7354ZM62.6737 52.3187C62.6242 52.3941 62.5799 52.4728 62.5418 52.5543C60.6362 55.0286 57.0859 55.4895 54.6115 53.5841C52.5467 51.9938 51.8361 49.1981 52.8912 46.815C54.432 44.204 57.7578 43.2727 60.4305 44.704L60.619 44.8077C63.1993 46.3766 64.0913 49.696 62.6452 52.347L62.6737 52.3187Z" fill="url(#paint4_linear)"/>
<path d="M39.2234 8.27954C34.1174 8.27766 29.9769 12.4156 29.975 17.5213C29.974 19.9759 30.9494 22.33 32.6858 24.065C34.4168 25.7988 36.7667 26.7721 39.2168 26.7697C44.3228 26.7716 48.4633 22.6337 48.4652 17.5279C48.4671 12.4219 44.3294 8.28143 39.2234 8.27954ZM43.3071 21.5398C41.108 23.7571 37.5277 23.7717 35.3105 21.5726C34.2366 20.5074 33.6341 19.0563 33.6379 17.5435C33.6344 16.0554 34.2246 14.6274 35.2777 13.5759C37.4768 11.3586 41.0571 11.344 43.2743 13.5432C45.4916 15.7423 45.5062 19.3225 43.3071 21.5398Z" fill="url(#paint5_linear)"/>
<path d="M39.2234 51.056C34.1174 51.0541 29.9769 55.1921 29.975 60.2978C29.974 62.7524 30.9494 65.1065 32.6858 66.8415C34.4168 68.5753 36.7667 69.5486 39.2168 69.5462C44.3228 69.5481 48.4633 65.4102 48.4652 60.3044C48.4671 55.1984 44.3294 51.0579 39.2234 51.056ZM43.3071 64.3069C41.108 66.5241 37.5277 66.5388 35.3105 64.3396C34.2366 63.2745 33.6341 61.8234 33.6379 60.3106C33.6344 58.8225 34.2246 57.3945 35.2777 56.343C37.4768 54.1257 41.0571 54.1111 43.2743 56.3102C45.4916 58.5094 45.5062 62.0896 43.3071 64.3069Z" fill="url(#paint6_linear)"/>
<path d="M25.3692 20.2091C25.3484 20.1971 25.3277 20.1851 25.307 20.1731C20.957 17.6512 15.3885 19.0811 12.7917 23.3867C12.7264 23.4789 12.6697 23.5766 12.6221 23.6789C10.1949 28.0404 11.6723 33.5413 15.9582 36.0999L15.9488 36.1376L16.2032 36.279C20.6072 38.7243 26.1582 37.1898 28.6808 32.8297C31.2513 28.4303 29.7686 22.7798 25.3692 20.2091ZM25.5614 31.0109C23.9965 33.6784 20.5789 34.5935 17.8902 33.0653C15.2283 31.5007 14.3137 28.0901 15.8357 25.4035H15.8263L15.8734 25.3093C17.4649 22.7002 20.8416 21.828 23.4975 23.3396C26.1683 24.9014 27.0879 28.3198 25.5614 31.0109Z" fill="url(#paint7_linear)"/>
</g>
<defs>
<linearGradient id="paint0_linear" x1="47.5" y1="-0.312134" x2="47.5" y2="89.6119" gradientUnits="userSpaceOnUse">
<stop stop-color="#F26729"/>
<stop offset="1" stop-color="#EF1D08"/>
</linearGradient>
<linearGradient id="paint1_linear" x1="57.8914" y1="19.4307" x2="57.8914" y2="37.434" gradientUnits="userSpaceOnUse">
<stop stop-color="#F26729"/>
<stop offset="1" stop-color="#EF1D08"/>
</linearGradient>
<linearGradient id="paint2_linear" x1="39.2123" y1="31.5479" x2="39.2123" y2="46.2684" gradientUnits="userSpaceOnUse">
<stop stop-color="#F26729"/>
<stop offset="1" stop-color="#EF1D08"/>
</linearGradient>
<linearGradient id="paint3_linear" x1="20.6847" y1="40.368" x2="20.6847" y2="58.8443" gradientUnits="userSpaceOnUse">
<stop stop-color="#F26729"/>
<stop offset="1" stop-color="#EF1D08"/>
</linearGradient>
<linearGradient id="paint4_linear" x1="57.7189" y1="40.3806" x2="57.7189" y2="58.9506" gradientUnits="userSpaceOnUse">
<stop stop-color="#F26729"/>
<stop offset="1" stop-color="#EF1D08"/>
</linearGradient>
<linearGradient id="paint5_linear" x1="39.2201" y1="8.27954" x2="39.2201" y2="26.7697" gradientUnits="userSpaceOnUse">
<stop stop-color="#F26729"/>
<stop offset="1" stop-color="#EF1D08"/>
</linearGradient>
<linearGradient id="paint6_linear" x1="39.2201" y1="51.056" x2="39.2201" y2="69.5462" gradientUnits="userSpaceOnUse">
<stop stop-color="#F26729"/>
<stop offset="1" stop-color="#EF1D08"/>
</linearGradient>
<linearGradient id="paint7_linear" x1="20.6988" y1="18.9286" x2="20.6988" y2="37.4418" gradientUnits="userSpaceOnUse">
<stop stop-color="#F26729"/>
<stop offset="1" stop-color="#EF1D08"/>
</linearGradient>
<clipPath id="clip0">
<rect width="95" height="95" fill="white"/>
</clipPath>
</defs>
</svg>
