<svg width="51" height="12" viewBox="0 0 51 12" fill="none" xmlns="http://www.w3.org/2000/svg">
<path fill-rule="evenodd" clip-rule="evenodd" d="M7.45149 2C8.51862 2.42961 9.49407 2.90977 10.4122 3.46C12.8608 4.92751 14.8366 6.85465 17.0453 9.51104C17.3984 9.93571 17.3403 10.5662 16.9157 10.9193C16.491 11.2724 15.8605 11.2144 15.5074 10.7897C13.368 8.21654 11.5595 6.47929 9.38404 5.17551C7.20453 3.8693 4.59178 2.95947 0.790004 2.14206C0.250059 2.02597 -0.0935421 1.49415 0.0225498 0.954201C0.128777 0.460135 0.583089 0.130464 1.0732 0.166949C1.23167 0.0614685 1.42195 0 1.62659 0H49.6266C50.1789 0 50.6266 0.447715 50.6266 1C50.6266 1.55228 50.1789 2 49.6266 2H7.45149Z" fill="white"/>
</svg>
