<svg width="56" height="33" viewBox="0 0 56 33" fill="none" xmlns="http://www.w3.org/2000/svg">
<path fill-rule="evenodd" clip-rule="evenodd" d="M0 3C0 1.34315 1.34315 0 3 0H53C54.6569 0 56 1.34315 56 3C56 4.65685 54.6569 6 53 6H3C1.34315 6 0 4.65685 0 3ZM18 16C18 14.3431 19.3431 13 21 13H53C54.6569 13 56 14.3431 56 16C56 17.6569 54.6569 19 53 19H21C19.3431 19 18 17.6569 18 16ZM43 27C41.3431 27 40 28.3431 40 30C40 31.6569 41.3431 33 43 33H53C54.6569 33 56 31.6569 56 30C56 28.3431 54.6569 27 53 27H43Z" fill="white"/>
</svg>
