<?xml version="1.0" encoding="iso-8859-1"?>
<!-- Generator: Adobe Illustrator 19.0.0, SVG Export Plug-In . SVG Version: 6.00 Build 0)  -->
<svg version="1.1" id="Capa_1" xmlns="http://www.w3.org/2000/svg" xmlns:xlink="http://www.w3.org/1999/xlink" x="0px" y="0px"
	 viewBox="0 0 403.219 403.219" style="enable-background:new 0 0 403.219 403.219;" xml:space="preserve">
<g>
	<g>
		<path d="M399.453,338.999c-3.101-6.071-7.152-11.607-12-16.4c-5.572-5.64-12.031-10.329-19.12-13.88
			c-17.44-8.72-40.56-11.32-67.32,1.8c-20.414,9.47-42.282,15.421-64.68,17.6c83.366-38.623,119.637-137.514,81.014-220.88
			C278.724,23.873,179.833-12.398,96.467,26.225C13.101,64.848-23.17,163.739,15.453,247.105
			c26.927,58.12,84.83,95.618,148.88,96.414l0.12-0.04c32.24,17.56,76.36,13.36,112.8,9.84c12.295-1.452,24.66-2.226,37.04-2.32
			c27.2,0.68,25.72,29.48,25.48,32.72c-0.578,4.202,2.359,8.077,6.561,8.656c1.703,0.234,3.435-0.109,4.919-0.976l47.4-27.44
			c1.291-0.751,2.334-1.863,3-3.2C404.373,355.319,403.493,347.279,399.453,338.999z M60.213,283.919
			c-28.359-28.263-44.318-66.642-44.36-106.68c-0.106-39.977,15.713-78.351,43.96-106.64h0.04
			c58.807-59.006,154.314-59.167,213.32-0.36c59.006,58.807,59.167,154.314,0.36,213.32
			C214.725,342.565,119.219,342.726,60.213,283.919z M354.613,371.719c-2.12-14.48-10.28-35.32-40-36
			c-12.981,0.072-25.948,0.873-38.84,2.4l-12.4,1.16c15.4-3.151,30.353-8.189,44.52-15l-0.04,0c21.68-10.64,40-8.72,53.72-1.88
			c5.579,2.807,10.659,6.509,15.04,10.96c3.675,3.611,6.753,7.783,9.12,12.36c1.119,2.07,1.928,4.294,2.4,6.6L354.613,371.719z"/>
	</g>
</g>
<g>
	<g>
		<path d="M279.076,112.239c-0.008-0.013-0.015-0.026-0.023-0.04c-11.915-18.076-36.227-23.07-54.303-11.156
			c-16.421,10.824-22.279,32.14-13.697,49.836l0.12,0.56c10.847,18.707,34.795,25.097,53.52,14.28
			C283.433,154.923,289.872,130.979,279.076,112.239z M256.973,152.399c-11.412,6.487-25.917,2.602-32.56-8.72l-0.2-0.36
			c-2.927-5.381-3.685-11.678-2.12-17.6h0c3.605-12.755,16.867-20.173,29.622-16.569c5.859,1.656,10.87,5.477,14.018,10.689
			C272.212,131.261,268.309,145.77,256.973,152.399z"/>
	</g>
</g>
<g>
	<g>
		<path d="M188.533,155.159c-5.85-5.867-13.795-9.164-22.08-9.16c-17.253-0.011-31.249,13.967-31.26,31.22
			c-0.011,17.253,13.967,31.249,31.22,31.26c17.253,0.011,31.249-13.967,31.26-31.22
			C197.678,168.972,194.39,161.022,188.533,155.159z M177.733,188.439c-6.223,6.274-16.353,6.315-22.627,0.093
			c-6.274-6.223-6.315-16.353-0.093-22.627c6.223-6.274,16.353-6.315,22.627-0.092c3.045,3.021,4.751,7.138,4.732,11.427
			C182.377,181.441,180.707,185.471,177.733,188.439z"/>
	</g>
</g>
<g>
	<g>
		<path d="M122.093,203.479l-0.36-0.44c-10.82-18.736-34.774-25.164-53.52-14.36c-18.788,10.758-25.297,34.709-14.539,53.497
			c0.02,0.034,0.04,0.069,0.059,0.103c5.242,9.042,13.885,15.61,24,18.24c9.866,2.651,20.377,1.33,29.28-3.68l0.48-0.28
			C126.073,245.849,132.582,222.185,122.093,203.479z M99.773,243.119l-0.36,0.2c-11.323,6.089-25.434,2.173-32-8.88
			c-3.213-5.405-4.148-11.865-2.6-17.96l0.04,0.04c1.63-6.115,5.633-11.327,11.12-14.48c11.412-6.486,25.918-2.602,32.56,8.72
			l0.2,0.36C114.808,222.463,110.855,236.58,99.773,243.119z"/>
	</g>
</g>
<g>
	<g>
		<path d="M265.093,189.239l0.12-0.24l-0.4-0.24c-18.742-10.836-42.721-4.427-53.557,14.315c-0.001,0.002-0.002,0.003-0.003,0.005
			c-11.046,18.634-4.894,42.694,13.74,53.74c18.634,11.046,42.694,4.894,53.74-13.74v-0.24l0.2-0.36
			C289.659,223.935,283.493,200.213,265.093,189.239z M266.013,234.159c-0.21,0.32-0.398,0.654-0.56,1
			c-8.088,10.502-23.157,12.458-33.659,4.371c-8.764-6.75-11.78-18.616-7.302-28.731c6.54-11.082,20.656-15.035,32-8.96l0.8,0.44
			c10.952,6.659,14.738,20.748,8.6,32L266.013,234.159z"/>
	</g>
</g>
<g>
	<g>
		<path d="M166.48,47.239c-21.672-0.008-39.246,17.555-39.254,39.226c-0.004,10.418,4.136,20.41,11.506,27.774
			c7.347,7.359,17.321,11.49,27.72,11.48c21.672,0.008,39.246-17.555,39.254-39.226C205.714,64.821,188.152,47.247,166.48,47.239z
			 M183.813,103.521c-9.334,9.411-24.53,9.473-33.941,0.139c-4.558-4.521-7.115-10.68-7.099-17.101
			c-0.015-6.316,2.49-12.377,6.96-16.84c9.334-9.411,24.53-9.473,33.941-0.139C193.085,78.914,193.147,94.11,183.813,103.521z"/>
	</g>
</g>
<g>
	<g>
		<path d="M166.48,228.799c-21.672-0.008-39.246,17.555-39.254,39.226c-0.004,10.418,4.136,20.41,11.506,27.774
			c7.347,7.359,17.321,11.49,27.72,11.48c21.672,0.008,39.246-17.555,39.254-39.226C205.714,246.381,188.152,228.807,166.48,228.799
			z M183.813,285.041c-9.334,9.411-24.53,9.473-33.941,0.139c-4.558-4.521-7.115-10.68-7.099-17.101
			c-0.015-6.316,2.49-12.377,6.96-16.84c9.334-9.411,24.53-9.473,33.941-0.139S193.147,275.63,183.813,285.041z"/>
	</g>
</g>
<g>
	<g>
		<path d="M107.677,97.872c-0.088-0.051-0.176-0.102-0.264-0.153c-18.463-10.704-42.098-4.635-53.12,13.64
			c-0.277,0.391-0.518,0.806-0.72,1.24c-10.302,18.512-4.031,41.86,14.16,52.72l-0.04,0.16l1.08,0.6
			c18.692,10.379,42.253,3.866,52.96-14.64C132.643,132.766,126.35,108.783,107.677,97.872z M108.493,143.719
			c-6.642,11.322-21.148,15.206-32.56,8.72c-11.298-6.641-15.18-21.117-8.72-32.52h-0.04l0.2-0.4
			c6.755-11.074,21.087-14.776,32.36-8.36C111.069,117.788,114.972,132.297,108.493,143.719z"/>
	</g>
</g>
<g>
</g>
<g>
</g>
<g>
</g>
<g>
</g>
<g>
</g>
<g>
</g>
<g>
</g>
<g>
</g>
<g>
</g>
<g>
</g>
<g>
</g>
<g>
</g>
<g>
</g>
<g>
</g>
<g>
</g>
</svg>
