<svg width="179" height="95" viewBox="0 0 179 95" fill="none" xmlns="http://www.w3.org/2000/svg">
<path d="M101.311 60.2676C99.5039 60.8535 97.5508 61.1465 95.4512 61.1465C88.127 61.1465 84.4648 57.5088 84.4648 50.2334C84.4648 43.3486 88.127 39.9062 95.4512 39.9062C97.5508 39.9062 99.5039 40.1992 101.311 40.7852V43.1289C99.5039 42.4453 97.6484 42.1035 95.7441 42.1035C90.0312 42.1035 87.1748 44.8135 87.1748 50.2334C87.1748 56.0439 90.0312 58.9492 95.7441 58.9492C97.6484 58.9492 99.5039 58.6074 101.311 57.9238V60.2676ZM115.382 40.0527V57.6309H123.702V61H111.5V40.0527H115.382ZM133.525 52.9141V40.0527H136.235V52.9141C136.235 56.9375 138.237 58.9492 142.241 58.9492C146.245 58.9492 148.247 56.9375 148.247 52.9141V40.0527H150.957V52.9141C150.957 58.4023 148.052 61.1465 142.241 61.1465C136.431 61.1465 133.525 58.4023 133.525 52.9141ZM161.791 61V40.0527H170.727C174.711 40.0527 176.703 41.6787 176.703 44.9307C176.703 47.3135 175.404 49.0176 172.807 50.043C175.58 50.5605 176.967 52.1475 176.967 54.8037C176.967 58.9346 174.784 61 170.419 61H161.791ZM170.258 58.8027C172.758 58.8027 174.008 57.5332 174.008 54.9941C174.008 52.5234 172.333 51.2881 168.983 51.2881H167.812V49.5156C171.815 48.9785 173.817 47.5332 173.817 45.1797C173.817 43.2266 172.704 42.25 170.478 42.25H164.501V58.8027H170.258Z" fill="white"/>
<path d="M93.1602 25.2422V42H90.9922V25.2422H93.1602ZM104.949 25.2422L97.4023 33.1523L105.113 42H102.102L95.2695 33.9375V32.625L102.207 25.2422H104.949ZM114.718 25.2422V42H112.55V25.2422H114.718ZM123.866 42V25.2422H126.034L136.287 38.7422V25.2422H138.338V42H136.17L125.916 28.3828V42H123.866ZM148.834 33.5742C148.834 38.0977 150.877 40.3594 154.963 40.3594C158.963 40.3594 160.963 38.0977 160.963 33.5742C160.963 29.1133 158.963 26.8828 154.963 26.8828C150.877 26.8828 148.834 29.1133 148.834 33.5742ZM146.548 33.6445C146.548 27.9648 149.353 25.125 154.963 25.125C160.486 25.125 163.248 27.9648 163.248 33.6445C163.248 39.293 160.486 42.1172 154.963 42.1172C149.353 42.1172 146.548 39.293 146.548 33.6445Z" fill="#F16729"/>
<path d="M93.1602 25.2422H94.1602V24.2422H93.1602V25.2422ZM93.1602 42V43H94.1602V42H93.1602ZM90.9922 42H89.9922V43H90.9922V42ZM90.9922 25.2422V24.2422H89.9922V25.2422H90.9922ZM104.949 25.2422L105.673 25.9325L107.285 24.2422H104.949V25.2422ZM97.4023 33.1523L96.6788 32.462L96.0493 33.1219L96.6485 33.8094L97.4023 33.1523ZM105.113 42V43H107.311L105.867 41.343L105.113 42ZM102.102 42L101.339 42.6465L101.638 43H102.102V42ZM95.2695 33.9375H94.2695V34.3042L94.5066 34.584L95.2695 33.9375ZM95.2695 32.625L94.5408 31.9402L94.2695 32.2289V32.625H95.2695ZM102.207 25.2422V24.2422H101.774L101.478 24.5574L102.207 25.2422ZM92.1602 25.2422V42H94.1602V25.2422H92.1602ZM93.1602 41H90.9922V43H93.1602V41ZM91.9922 42V25.2422H89.9922V42H91.9922ZM90.9922 26.2422H93.1602V24.2422H90.9922V26.2422ZM104.226 24.5519L96.6788 32.462L98.1259 33.8426L105.673 25.9325L104.226 24.5519ZM96.6485 33.8094L104.359 42.657L105.867 41.343L98.1562 32.4953L96.6485 33.8094ZM105.113 41H102.102V43H105.113V41ZM102.864 41.3535L96.0325 33.291L94.5066 34.584L101.339 42.6465L102.864 41.3535ZM96.2695 33.9375V32.625H94.2695V33.9375H96.2695ZM95.9983 33.3098L102.936 25.927L101.478 24.5574L94.5408 31.9402L95.9983 33.3098ZM102.207 26.2422H104.949V24.2422H102.207V26.2422ZM114.718 25.2422H115.718V24.2422H114.718V25.2422ZM114.718 42V43H115.718V42H114.718ZM112.55 42H111.55V43H112.55V42ZM112.55 25.2422V24.2422H111.55V25.2422H112.55ZM113.718 25.2422V42H115.718V25.2422H113.718ZM114.718 41H112.55V43H114.718V41ZM113.55 42V25.2422H111.55V42H113.55ZM112.55 26.2422H114.718V24.2422H112.55V26.2422ZM123.866 42H122.866V43H123.866V42ZM123.866 25.2422V24.2422H122.866V25.2422H123.866ZM126.034 25.2422L126.83 24.6373L126.53 24.2422H126.034V25.2422ZM136.287 38.7422L135.491 39.347L137.287 41.712V38.7422H136.287ZM136.287 25.2422V24.2422H135.287V25.2422H136.287ZM138.338 25.2422H139.338V24.2422H138.338V25.2422ZM138.338 42V43H139.338V42H138.338ZM136.17 42L135.371 42.6015L135.672 43H136.17V42ZM125.916 28.3828L126.715 27.7813L124.916 25.3924V28.3828H125.916ZM125.916 42V43H126.916V42H125.916ZM124.866 42V25.2422H122.866V42H124.866ZM123.866 26.2422H126.034V24.2422H123.866V26.2422ZM125.237 25.847L135.491 39.347L137.084 38.1373L126.83 24.6373L125.237 25.847ZM137.287 38.7422V25.2422H135.287V38.7422H137.287ZM136.287 26.2422H138.338V24.2422H136.287V26.2422ZM137.338 25.2422V42H139.338V25.2422H137.338ZM138.338 41H136.17V43H138.338V41ZM136.969 41.3985L126.715 27.7813L125.118 28.9844L135.371 42.6015L136.969 41.3985ZM124.916 28.3828V42H126.916V28.3828H124.916ZM125.916 41H123.866V43H125.916V41ZM147.834 33.5742C147.834 35.9664 148.372 37.9472 149.624 39.3334C150.893 40.7389 152.738 41.3594 154.963 41.3594V39.3594C153.101 39.3594 151.881 38.849 151.108 37.9928C150.317 37.1173 149.834 35.7055 149.834 33.5742H147.834ZM154.963 41.3594C157.151 41.3594 158.965 40.7351 160.212 39.3255C161.437 37.9394 161.963 35.9619 161.963 33.5742H159.963C159.963 35.71 159.488 37.125 158.713 38.0007C157.96 38.8528 156.774 39.3594 154.963 39.3594V41.3594ZM161.963 33.5742C161.963 31.2149 161.436 29.2586 160.207 27.8881C158.959 26.4968 157.147 25.8828 154.963 25.8828V27.8828C156.778 27.8828 157.966 28.3841 158.718 29.2233C159.489 30.0832 159.963 31.4726 159.963 33.5742H161.963ZM154.963 25.8828C152.742 25.8828 150.899 26.493 149.628 27.8802C148.373 29.2508 147.834 31.2103 147.834 33.5742H149.834C149.834 31.4772 150.316 30.091 151.103 29.2311C151.876 28.3878 153.097 27.8828 154.963 27.8828V25.8828ZM147.548 33.6445C147.548 30.9557 148.212 29.1234 149.363 27.9576C150.513 26.794 152.315 26.125 154.963 26.125V24.125C152 24.125 149.596 24.8759 147.94 26.5522C146.287 28.2262 145.548 30.6537 145.548 33.6445H147.548ZM154.963 26.125C157.563 26.125 159.331 26.7918 160.459 27.9521C161.593 29.1175 162.248 30.9519 162.248 33.6445H164.248C164.248 30.6574 163.522 28.2321 161.893 26.5577C160.26 24.8781 157.886 24.125 154.963 24.125V26.125ZM162.248 33.6445C162.248 36.3202 161.594 38.1421 160.461 39.2999C159.333 40.4535 157.564 41.1172 154.963 41.1172V43.1172C157.884 43.1172 160.258 42.3688 161.891 40.6982C163.521 39.0317 164.248 36.6173 164.248 33.6445H162.248ZM154.963 41.1172C152.314 41.1172 150.51 40.4513 149.362 39.2944C148.211 38.1362 147.548 36.3163 147.548 33.6445H145.548C145.548 36.6212 146.288 39.0376 147.942 40.7037C149.598 42.371 152.002 43.1172 154.963 43.1172V41.1172Z" fill="#F16729"/>
<g clip-path="url(#clip0)">
<path d="M94.1127 77.0194C93.3821 75.5891 92.4277 74.2848 91.2855 73.1555C89.9727 71.8267 88.4509 70.722 86.7807 69.8854C82.6718 67.8309 77.2246 67.2183 70.9199 70.3094C66.1102 72.5406 60.958 73.9427 55.681 74.4561C75.3223 65.3563 83.8679 42.0572 74.7682 22.4159C65.6685 2.7745 42.3694 -5.77109 22.728 3.32864C3.08664 12.4284 -5.45895 35.7275 3.64078 55.3688C9.98489 69.0622 23.6271 77.8968 38.7175 78.0844L38.7458 78.075C46.3416 82.2122 56.7365 81.2226 65.3219 80.3933C68.2186 80.0512 71.1319 79.8688 74.0487 79.8467C80.4571 80.0069 80.1084 86.7923 80.0519 87.5557C79.9157 88.5457 80.6077 89.4586 81.5977 89.595C81.9989 89.6502 82.407 89.5694 82.7566 89.3651L93.9242 82.9001C94.2284 82.7232 94.4741 82.4612 94.631 82.1462C95.2719 80.8645 95.0645 78.9702 94.1127 77.0194ZM14.1864 64.0424C7.50492 57.3835 3.74491 48.3413 3.73502 38.9081C3.71005 29.4894 7.43706 20.4483 14.0922 13.7833H14.1016C27.9568 -0.118714 50.4586 -0.156646 64.3606 13.6985C78.2627 27.5537 78.3006 50.0555 64.4455 63.9576C50.5901 77.8596 28.0885 77.8975 14.1864 64.0424ZM83.5482 84.7284C83.0487 81.3169 81.1262 76.4069 74.1241 76.2467C71.0657 76.2636 68.0106 76.4523 64.9732 76.8121L62.0517 77.0854C65.68 76.343 69.203 75.156 72.5408 73.5514H72.5314C77.6393 71.0445 81.9555 71.4969 85.188 73.1084C86.5025 73.7698 87.6993 74.642 88.7315 75.6906C89.5974 76.5414 90.3225 77.5243 90.8802 78.6027C91.1439 79.0904 91.3345 79.6144 91.4457 80.1577L83.5482 84.7284Z" fill="url(#paint0_linear)"/>
<path d="M65.7514 23.5939C65.7495 23.5908 65.7478 23.5878 65.746 23.5845C62.9387 19.3257 57.2107 18.1491 52.952 20.9561C49.0831 23.5063 47.7029 28.5284 49.7249 32.6976L49.7532 32.8296C52.3088 37.237 57.951 38.7425 62.3627 36.194C66.7779 33.6504 68.295 28.0091 65.7514 23.5939ZM60.5438 33.0558C57.8551 34.5841 54.4377 33.6688 52.8726 31.0013L52.8254 30.9165C52.1358 29.6487 51.9572 28.1651 52.326 26.7698C53.1753 23.7647 56.2999 22.017 59.305 22.8661C60.6854 23.2563 61.866 24.1565 62.6077 25.3845C64.1342 28.0756 63.2146 31.4939 60.5438 33.0558Z" fill="url(#paint1_linear)"/>
<path d="M44.4192 33.706C43.0409 32.3237 41.169 31.5469 39.217 31.5479C35.1522 31.5453 31.8546 34.8385 31.8521 38.9034C31.8495 42.9683 35.1427 46.2658 39.2076 46.2684C43.2725 46.271 46.57 42.9777 46.5726 38.9128C46.5738 36.9604 45.7991 35.0873 44.4192 33.706ZM41.8746 41.5469C40.4085 43.0251 38.0218 43.0347 36.5436 41.5688C35.0655 40.1026 35.0558 37.716 36.5217 36.2378C37.9879 34.7596 40.3746 34.7499 41.8527 36.2161C42.5701 36.9279 42.9721 37.8979 42.9676 38.9084C42.9688 39.8981 42.5753 40.8476 41.8746 41.5469Z" fill="url(#paint2_linear)"/>
<path d="M28.7657 45.0903L28.6809 44.9867C26.1316 40.5724 20.488 39.0579 16.0713 41.6034C11.6448 44.138 10.1113 49.781 12.6459 54.2075C12.6506 54.2155 12.6553 54.2237 12.6598 54.2318C13.8948 56.3621 15.9311 57.9095 18.3143 58.5292C20.6388 59.1538 23.1152 58.8425 25.2128 57.6621L25.3259 57.5962C29.7034 55.0729 31.2369 49.4975 28.7657 45.0903ZM23.507 54.4297L23.4222 54.4768C20.7544 55.9114 17.4298 54.9887 15.8828 52.3846C15.1259 51.1112 14.9056 49.5892 15.2703 48.1532L15.2797 48.1626C15.6637 46.7219 16.6069 45.4939 17.8996 44.751C20.5883 43.2229 24.006 44.138 25.5709 46.8055L25.618 46.8903C27.0493 49.563 26.118 52.889 23.507 54.4297Z" fill="url(#paint3_linear)"/>
<path d="M62.4569 41.7354L62.4852 41.6788L62.391 41.6223C57.9753 39.0693 52.3257 40.5793 49.7727 44.995C49.7725 44.9954 49.7722 44.9957 49.772 44.9961C47.1695 49.3864 48.619 55.055 53.0092 57.6575C57.3995 60.26 63.0681 58.8105 65.6706 54.4203V54.3638L65.7177 54.2789C68.2448 49.9099 66.792 44.3209 62.4569 41.7354ZM62.6737 52.3187C62.6242 52.3941 62.5799 52.4728 62.5418 52.5543C60.6362 55.0286 57.0859 55.4895 54.6115 53.5841C52.5467 51.9938 51.8361 49.1981 52.8912 46.815C54.432 44.204 57.7578 43.2727 60.4305 44.704L60.619 44.8077C63.1993 46.3766 64.0913 49.696 62.6452 52.347L62.6737 52.3187Z" fill="url(#paint4_linear)"/>
<path d="M39.2234 8.27954C34.1174 8.27766 29.9769 12.4156 29.975 17.5213C29.974 19.9759 30.9494 22.33 32.6858 24.065C34.4168 25.7988 36.7667 26.7721 39.2168 26.7697C44.3228 26.7716 48.4633 22.6337 48.4652 17.5279C48.4671 12.4219 44.3294 8.28143 39.2234 8.27954ZM43.3071 21.5398C41.108 23.7571 37.5277 23.7717 35.3105 21.5726C34.2366 20.5074 33.6341 19.0563 33.6379 17.5435C33.6344 16.0554 34.2246 14.6274 35.2777 13.5759C37.4768 11.3586 41.0571 11.344 43.2743 13.5432C45.4916 15.7423 45.5062 19.3225 43.3071 21.5398Z" fill="url(#paint5_linear)"/>
<path d="M39.2234 51.056C34.1174 51.0541 29.9769 55.1921 29.975 60.2978C29.974 62.7524 30.9494 65.1065 32.6858 66.8415C34.4168 68.5753 36.7667 69.5486 39.2168 69.5462C44.3228 69.5481 48.4633 65.4102 48.4652 60.3044C48.4671 55.1984 44.3294 51.0579 39.2234 51.056ZM43.3071 64.3069C41.108 66.5241 37.5277 66.5388 35.3105 64.3396C34.2366 63.2745 33.6341 61.8234 33.6379 60.3106C33.6344 58.8225 34.2246 57.3945 35.2777 56.343C37.4768 54.1257 41.0571 54.1111 43.2743 56.3102C45.4916 58.5094 45.5062 62.0896 43.3071 64.3069Z" fill="url(#paint6_linear)"/>
<path d="M25.3692 20.2091C25.3484 20.1971 25.3277 20.1851 25.307 20.1731C20.957 17.6512 15.3885 19.0811 12.7917 23.3867C12.7264 23.4789 12.6697 23.5766 12.6221 23.6789C10.1949 28.0404 11.6723 33.5413 15.9582 36.0999L15.9488 36.1376L16.2032 36.279C20.6072 38.7243 26.1582 37.1898 28.6808 32.8297C31.2513 28.4303 29.7686 22.7798 25.3692 20.2091ZM25.5614 31.0109C23.9965 33.6784 20.5789 34.5935 17.8902 33.0653C15.2283 31.5007 14.3137 28.0901 15.8357 25.4035H15.8263L15.8734 25.3093C17.4649 22.7002 20.8416 21.828 23.4975 23.3396C26.1683 24.9014 27.0879 28.3198 25.5614 31.0109Z" fill="url(#paint7_linear)"/>
</g>
<defs>
<linearGradient id="paint0_linear" x1="47.5" y1="-0.312134" x2="47.5" y2="89.6119" gradientUnits="userSpaceOnUse">
<stop stop-color="#F26729"/>
<stop offset="1" stop-color="#EF1D08"/>
</linearGradient>
<linearGradient id="paint1_linear" x1="57.8914" y1="19.4307" x2="57.8914" y2="37.434" gradientUnits="userSpaceOnUse">
<stop stop-color="#F26729"/>
<stop offset="1" stop-color="#EF1D08"/>
</linearGradient>
<linearGradient id="paint2_linear" x1="39.2123" y1="31.5479" x2="39.2123" y2="46.2684" gradientUnits="userSpaceOnUse">
<stop stop-color="#F26729"/>
<stop offset="1" stop-color="#EF1D08"/>
</linearGradient>
<linearGradient id="paint3_linear" x1="20.6847" y1="40.368" x2="20.6847" y2="58.8443" gradientUnits="userSpaceOnUse">
<stop stop-color="#F26729"/>
<stop offset="1" stop-color="#EF1D08"/>
</linearGradient>
<linearGradient id="paint4_linear" x1="57.7189" y1="40.3806" x2="57.7189" y2="58.9506" gradientUnits="userSpaceOnUse">
<stop stop-color="#F26729"/>
<stop offset="1" stop-color="#EF1D08"/>
</linearGradient>
<linearGradient id="paint5_linear" x1="39.2201" y1="8.27954" x2="39.2201" y2="26.7697" gradientUnits="userSpaceOnUse">
<stop stop-color="#F26729"/>
<stop offset="1" stop-color="#EF1D08"/>
</linearGradient>
<linearGradient id="paint6_linear" x1="39.2201" y1="51.056" x2="39.2201" y2="69.5462" gradientUnits="userSpaceOnUse">
<stop stop-color="#F26729"/>
<stop offset="1" stop-color="#EF1D08"/>
</linearGradient>
<linearGradient id="paint7_linear" x1="20.6988" y1="18.9286" x2="20.6988" y2="37.4418" gradientUnits="userSpaceOnUse">
<stop stop-color="#F26729"/>
<stop offset="1" stop-color="#EF1D08"/>
</linearGradient>
<clipPath id="clip0">
<rect width="95" height="95" fill="white"/>
</clipPath>
</defs>
</svg>
