<svg width="50" height="50" viewBox="0 0 50 50" fill="none" xmlns="http://www.w3.org/2000/svg">
<path fill-rule="evenodd" clip-rule="evenodd" d="M25 50C38.8071 50 50 38.8071 50 25C50 11.1929 38.8071 0 25 0C11.1929 0 0 11.1929 0 25C0 38.8071 11.1929 50 25 50ZM34 25L20.5 32.7942V17.2058L34 25ZM38.5 25.866L37 26.7321L20.5 36.2583L19 37.1244C18.3333 37.5092 17.5 37.0281 17.5 36.2583V34.5263V15.4737V13.7417C17.5 12.9719 18.3333 12.4908 19 12.8756L20.5 13.7417L37 23.2679L38.5 24.134C39.1667 24.5189 39.1667 25.4811 38.5 25.866Z" fill="white"/>
</svg>
